{"title":"Pain and Gain 2013 BRRip AAC x264-SSDD","uid":8802742,"size":577286034,"categoryP":"video","categoryS":"movies","magnet":"?xt=urn:btih:456f78ad32feb2750752cd25dd8d569a173c0018&amp;dn=Pain+and+Gain+2013+BRRip+AAC+x264-SSDD&amp;tr=udp%3A%2F%2Ftracker.openbittorrent.com%3A80&amp;tr=udp%3A%2F%2Fopen.demonii.com%3A1337&amp;tr=udp%3A%2F%2Ftracker.coppersurfer.tk%3A6969&amp;tr=udp%3A%2F%2Fexodus.desync.com%3A6969","seeders":2,"leechers":1,"uploader":"TeX","files":2,"time":1376249098,"description":"[img]http://ultraimg.com/images/YDAUV.png[/img]\n\nIMDB Link - http://www.imdb.com/title/tt1980209/\n\nSource - Pain.and.Gain.2013.BDRip.X264-AMIABLE (Thumbs Up + Respect)\n\nNOTES - Enjoy.\n\nGeneral\nComplete name : Pain and Gain 2013 BRRip AAC x264-SSDD.mp4\nFormat : MPEG-4\nFormat profile : Base Media\nCodec ID : isom\nFile size : 550 MiB\nDuration : 2h 9mn\nOverall bit rate mode : Variable\nOverall bit rate : 594 Kbps\n\nVideo\nID : 1\nFormat : AVC\nFormat/Info : Advanced Video Codec\nFormat profile : &lt;a class=&quot;__cf_email__&quot; href=&quot;/cdn-cgi/l/email-protection&quot; data-cfemail=&quot;377a565e59777b051906&quot;&gt;[email&amp;#160;protected]&lt;/a&gt;&lt;script cf-hash='f9e31' type=&quot;text/javascript&quot;&gt;\n/* &lt;![CDATA[ */!function(){try{var t=&quot;currentScript&quot;in document?document.currentScript:function(){for(var t=document.getElementsByTagName(&quot;script&quot;),e=t.length;e--;)if(t[e].getAttribute(&quot;cf-hash&quot;))return t[e]}();if(t&amp;&amp;t.previousSibling){var e,r,n,i,c=t.previousSibling,a=c.getAttribute(&quot;data-cfemail&quot;);if(a){for(e=&quot;&quot;,r=parseInt(a.substr(0,2),16),n=2;a.length-n;n+=2)i=parseInt(a.substr(n,2),16)^r,e+=String.fromCharCode(i);e=document.createTextNode(e),c.parentNode.replaceChild(e,c)}}}catch(u){}}();/* ]]&gt; */&lt;/script&gt;\nFormat settings, CABAC : Yes\nFormat settings, ReFrames : 4 frames\nCodec ID : avc1\nCodec ID/Info : Advanced Video Coding\nDuration : 2h 9mn\nBit rate : 545 Kbps\nMaximum bit rate : 1 935 Kbps\nWidth : 608 pixels\nHeight : 254 pixels\nDisplay aspect ratio : 2.40:1\nFrame rate mode : Constant\nFrame rate : 23.976 fps\nColor space : YUV\nChroma subsampling : 4:2:0\nBit depth : 8 bits\nScan type : Progressive\nBits/(Pixel*Frame) : 0.147\nStream size : 505 MiB (92%)\nWriting library : x264 core 133 r2334 a3ac64b\n\nAudio\nID : 2\nFormat : AAC\nFormat/Info : Advanced Audio Codec\nFormat profile : LC\nCodec ID : 40\nDuration : 2h 9mn\nBit rate mode : Variable\nBit rate : 45.0 Kbps\nMaximum bit rate : 66.2 Kbps\nChannel(s) : 2 channels\nChannel positions : Front: L R\nSampling rate : 48.0 KHz\nCompression mode : Lossy\nStream size : 41.7 MiB (8%)\n\n[img]http://ultraimg.com/images/k9z6.png[/img]\n","torrent":{"xt":"urn:btih:456f78ad32feb2750752cd25dd8d569a173c0018","amp;dn":"Pain+and+Gain+2013+BRRip+AAC+x264-SSDD","amp;tr":["udp%3A%2F%2Ftracker.openbittorrent.com%3A80","udp%3A%2F%2Fopen.demonii.com%3A1337","udp%3A%2F%2Ftracker.coppersurfer.tk%3A6969","udp%3A%2F%2Fexodus.desync.com%3A6969"],"infoHash":"456f78ad32feb2750752cd25dd8d569a173c0018","infoHashBuffer":{"type":"Buffer","data":[69,111,120,173,50,254,178,117,7,82,205,37,221,141,86,154,23,60,0,24]},"announce":[],"urlList":[]}}